#!OML:ASF F:\VICON\USERDATA\INSTALL\rory3\rory3.ASF
:FULLY-SPECIFIED
:DEGREES
926
root -1.44607 17.6406 -6.08486 1.60515 21.8608 -0.0984926
lowerback 3.12701 -4.07803 -3.97254
upperback 1.40531 -5.53763 1.94061
thorax 0.269 -2.807 4.34788
lowerneck -22.781 -4.21591 -12.2848
upperneck 24.4072 -2.28565 2.923
head 12.0429 -1.79416 2.74736
rclavicle 1.20265e-014 -2.38542e-015
rhumerus 35.2349 0.328154 -52.0273
rradius 66.213
rwrist 51.8411
rhand -63.8387 0.0519551
rfingers 7.12502
rthumb -35.7981 -26.3139
lclavicle 1.20265e-014 -2.38542e-015
lhumerus 48.3175 -9.41331 56.7973
lradius 47.2139
lwrist -47.5383
lhand -45.6349 44.9708
lfingers 7.12502
lthumb -18.3945 74.1211
rfemur -24.7758 2.42874 17.8438
rtibia 35.9794
rfoot -10.8598 -3.63558
rtoes 16.3617
lfemur 1.09068 -0.663717 -18.7073
ltibia 23.0585
lfoot -18.5755 13.6119
ltoes -19.164
927
root -1.42897 17.6366 -6.14024 1.66907 21.5512 -0.0899519
lowerback 2.91721 -4.06518 -3.98782
upperback 1.47365 -5.51352 1.91814
thorax 0.4532 -2.80071 4.31234
lowerneck -23.0088 -4.15199 -12.2245
upperneck 24.4024 -2.15553 2.82757
head 12.0718 -1.74218 2.72201
rclavicle 1.0312e-014 1.2921e-014
rhumerus 38.0631 0.0238632 -51.8672
rradius 62.4714
rwrist 51.5661
rhand -63.1695 -2.483
rfingers 7.12502
rthumb -35.1637 -29.0007
lclavicle 1.0312e-014 1.2921e-014
lhumerus 50.6897 -8.62612 56.5836
lradius 43.5494
lwrist -48.1059
lhand -45.8083 44.3141
lfingers 7.12502
lthumb -18.5613 73.4485
rfemur -25.0643 2.61327 17.6927
rtibia 35.9732
rfoot -10.6036 -3.62324
rtoes 16.9516
lfemur 0.882413 -0.37737 -18.8549
ltibia 23.1636
lfoot -18.765 13.5947
ltoes -18.5078
928
root -1.41113 17.6299 -6.19102 1.66282 21.2367 -0.0438292
lowerback 3.14316 -4.03134 -4.02321
upperback 1.13404 -5.48017 1.93175
thorax -0.021796 -2.76619 4.38114
lowerneck -22.5404 -4.09909 -12.5856
upperneck 24.4834 -2.04896 2.93609
head 12.0125 -1.7193 2.84416
rclavicle 1.023e-013 -2.82274e-014
rhumerus 40.1211 0.166878 -51.7184
rradius 58.9783
rwrist 51.2018
rhand -62.4752 -4.59089
rfingers 7.12502
rthumb -34.5049 -31.2611
lclavicle 1.023e-013 -2.82274e-014
lhumerus 52.186 -8.19304 56.8372
lradius 40.2224
lwrist -48.6539
lhand -46.0248 44.5106
lfingers 7.12502
lthumb -18.7695 73.625
rfemur -25.2371 2.77837 17.5189
rtibia 35.9358
rfoot -10.4718 -3.54074
rtoes 16.8302
lfemur 0.719011 -0.0327767 -19.0328
ltibia 23.3109
lfoot -18.8105 13.6435
ltoes -18.5863
929
root -1.39407 17.6254 -6.24068 1.70867 20.8886 0.0511025
lowerback 3.31646 -4.0332 -4.1596
upperback 0.974781 -5.49458 1.94957
thorax -0.266368 -2.76468 4.49767
lowerneck -22.7629 -4.01803 -12.7154
upperneck 24.6495 -1.85413 2.94885
head 12.1061 -1.64842 2.905
rclavicle -7.06183e-014 1.33186e-014
rhumerus 42.3443 0.144323 -51.6813
rradius 55.7867
rwrist 50.8438
rhand -61.9558 -6.77533
rfingers 7.12502
rthumb -34.0117 -33.5565
lclavicle -7.06183e-014 1.33186e-014
lhumerus 53.6747 -7.4586 57.1229
lradius 37.2709
lwrist -49.0358
lhand -46.2658 45.6491
lfingers 7.12502
lthumb -19.0013 74.741
rfemur -25.4379 3.01338 17.3029
rtibia 35.8821
rfoot -10.4093 -3.49443
rtoes 15.4651
lfemur 0.493575 0.328667 -19.2606
ltibia 23.4871
lfoot -18.854 13.7025
ltoes -18.5854
930
root -1.37908 17.6218 -6.29097 1.72634 20.6003 0.0872249
lowerback 2.58371 -3.97469 -4.46081
upperback 1.58657 -5.39196 2.05557
thorax 0.801822 -2.75689 4.68411
lowerneck -23.5727 -4.13316 -12.7037
upperneck 24.293 -1.86179 2.82041
head 12.1228 -1.65204 2.84281
rclavicle -1.38901e-014 8.74653e-015
rhumerus 45.1685 -0.848438 -51.6659
rradius 52.7778
rwrist 50.8857
rhand -61.7864 -9.55175
rfingers 7.12502
rthumb -33.8508 -36.3685
lclavicle -1.38901e-014 8.74653e-015
lhumerus 56.1345 -6.2831 57.6345
lradius 34.5177
lwrist -49.4248
lhand -46.2498 46.7667
lfingers 7.12502
lthumb -18.986 75.86
rfemur -25.6175 3.22088 17.1511
rtibia 35.8489
rfoot -10.2263 -3.46201
rtoes 15.1868
lfemur 0.295682 0.560862 -19.4201
ltibia 23.626
lfoot -18.9415 13.7253
ltoes -18.3362
931
root -1.36342 17.6183 -6.3374 1.74094 20.3023 0.0895331
lowerback 2.56922 -3.91016 -4.50479
upperback 1.4715 -5.30756 2.06275
thorax 0.686187 -2.70966 4.72051
lowerneck -23.4489 -4.10497 -12.7001
upperneck 24.2203 -1.80613 2.69375
head 12.0656 -1.64182 2.80257
rclavicle -2.48481e-014 -4.17448e-015
rhumerus 46.9065 -1.14226 -51.9154
rradius 49.9033
rwrist 51.0703
rhand -61.4208 -11.3402
rfingers 7.12502
rthumb -33.5034 -38.2328
lclavicle -2.48481e-014 -4.17448e-015
lhumerus 57.4257 -5.81851 58.163
lradius 32.122
lwrist -49.6498
lhand -46.0358 47.4659
lfingers 7.12502
lthumb -18.7802 76.5793
rfemur -25.8071 3.35829 17.0394
rtibia 35.8096
rfoot -9.90176 -3.31309
rtoes 15.7976
lfemur 0.114205 0.794708 -19.5392
ltibia 23.7278
lfoot -18.9645 13.7345
ltoes -18.0007
